<svg xmlns="http://www.w3.org/2000/svg" viewBox="0 0 640 400" aria-hidden="true">
  <path d="M68 318h390l-88-118H148z" fill="#78A7C8"/>
  <path d="M438 80c54 46 61 117 17 173M493 62c48 57 40 127-11 183" fill="none" stroke="#628B51" stroke-width="18" stroke-linecap="round"/>
  <path d="M448 132c-44-31-75-18-76 17 33 14 60 4 76-17zm33 40c48-28 75-8 70 26-35 9-60-4-70-26z" fill="#79A862"/>
  <rect x="246" y="98" width="66" height="154" rx="28" fill="#F8FBFC" stroke="#2C5981" stroke-width="9"/>
  <path d="M263 78h33v25h-33z" fill="#2C5981"/><path d="M264 150h32" stroke="#A7CAE2" stroke-width="10" stroke-linecap="round"/>
  <circle cx="157" cy="288" r="30" fill="#2C5981"/><circle cx="373" cy="288" r="30" fill="#2C5981"/>
  <path d="M157 288h216" stroke="#2C5981" stroke-width="22" stroke-linecap="round"/>
</svg>
